<svg width="62" height="4" viewBox="0 0 62 4" fill="none" xmlns="http://www.w3.org/2000/svg">
<rect width="62" height="4" fill="#1E1E1E"/>
<g id="Mobile">
<g id="Home" clip-path="url(#clip0_162_572)">
<rect width="320" height="2628" transform="translate(-2 -1059)" fill="white"/>
<g id="Frame 106">
<path id="Vector header" d="M60 3.5C60.8284 3.5 61.5 2.82843 61.5 2C61.5 1.17157 60.8284 0.5 60 0.5L60 3.5ZM7.67821e-10 3.5L60 3.5L60 0.5L-7.67821e-10 0.5L7.67821e-10 3.5Z" fill="url(#paint0_linear_162_572)"/>
<path id="About Game" d="M70.6086 9.032H62.2246L60.8806 13H55.1526L63.2806 -9.464H69.6166L77.7446 13H71.9526L70.6086 9.032ZM69.2006 4.808L66.4166 -3.416L63.6646 4.808H69.2006ZM85.6904 -2.328C86.2024 -3.16 86.9384 -3.832 87.8984 -4.344C88.8584 -4.856 89.957 -5.112 91.1944 -5.112C92.6664 -5.112 93.9997 -4.73867 95.1944 -3.992C96.389 -3.24533 97.3277 -2.17867 98.0104 -0.792001C98.7144 0.594666 99.0664 2.20533 99.0664 4.04C99.0664 5.87467 98.7144 7.496 98.0104 8.904C97.3277 10.2907 96.389 11.368 95.1944 12.136C93.9997 12.8827 92.6664 13.256 91.1944 13.256C89.9357 13.256 88.837 13.0107 87.8984 12.52C86.9597 12.008 86.2237 11.336 85.6904 10.504V13H80.2184V-10.68H85.6904V-2.328ZM93.4984 4.04C93.4984 2.67467 93.1144 1.608 92.3464 0.839999C91.5997 0.0506659 90.6717 -0.344001 89.5624 -0.344001C88.4744 -0.344001 87.5464 0.0506659 86.7784 0.839999C86.0317 1.62933 85.6584 2.70667 85.6584 4.072C85.6584 5.43733 86.0317 6.51467 86.7784 7.304C87.5464 8.09333 88.4744 8.488 89.5624 8.488C90.6504 8.488 91.5784 8.09333 92.3464 7.304C93.1144 6.49333 93.4984 5.40533 93.4984 4.04ZM110.065 13.256C108.316 13.256 106.737 12.8827 105.329 12.136C103.942 11.3893 102.844 10.3227 102.033 8.936C101.244 7.54933 100.849 5.928 100.849 4.072C100.849 2.23733 101.254 0.626666 102.065 -0.76C102.876 -2.168 103.985 -3.24533 105.393 -3.992C106.801 -4.73867 108.38 -5.112 110.129 -5.112C111.878 -5.112 113.457 -4.73867 114.865 -3.992C116.273 -3.24533 117.382 -2.168 118.193 -0.76C119.004 0.626666 119.409 2.23733 119.409 4.072C119.409 5.90667 118.993 7.528 118.161 8.936C117.35 10.3227 116.23 11.3893 114.801 12.136C113.393 12.8827 111.814 13.256 110.065 13.256ZM110.065 8.52C111.11 8.52 111.996 8.136 112.721 7.368C113.468 6.6 113.841 5.50133 113.841 4.072C113.841 2.64267 113.478 1.544 112.753 0.775999C112.049 0.00799942 111.174 -0.376 110.129 -0.376C109.062 -0.376 108.177 0.00799942 107.473 0.775999C106.769 1.52267 106.417 2.62133 106.417 4.072C106.417 5.50133 106.758 6.6 107.441 7.368C108.145 8.136 109.02 8.52 110.065 8.52ZM139.944 -4.856V13H134.472V10.568C133.917 11.3573 133.16 11.9973 132.2 12.488C131.261 12.9573 130.216 13.192 129.064 13.192C127.699 13.192 126.493 12.8933 125.448 12.296C124.403 11.6773 123.592 10.792 123.016 9.64C122.44 8.488 122.152 7.13333 122.152 5.576V-4.856H127.592V4.84C127.592 6.03467 127.901 6.96267 128.52 7.624C129.139 8.28533 129.971 8.616 131.016 8.616C132.083 8.616 132.925 8.28533 133.544 7.624C134.163 6.96267 134.472 6.03467 134.472 4.84V-4.856H139.944ZM153.827 8.36V13H151.043C149.059 13 147.512 12.52 146.403 11.56C145.293 10.5787 144.739 8.98933 144.739 6.792V-0.312H142.563V-4.856H144.739V-9.208H150.211V-4.856H153.795V-0.312H150.211V6.856C150.211 7.38933 150.339 7.77333 150.595 8.008C150.851 8.24267 151.277 8.36 151.875 8.36H153.827ZM178.568 -2.36C178.163 -3.10667 177.576 -3.672 176.808 -4.056C176.061 -4.46133 175.176 -4.664 174.152 -4.664C172.381 -4.664 170.963 -4.07733 169.896 -2.904C168.829 -1.752 168.296 -0.205334 168.296 1.736C168.296 3.80533 168.851 5.42667 169.96 6.6C171.091 7.752 172.637 8.328 174.6 8.328C175.944 8.328 177.075 7.98667 177.992 7.304C178.931 6.62133 179.613 5.64 180.04 4.36H173.096V0.327999H185V5.416C184.595 6.78133 183.901 8.05067 182.92 9.224C181.96 10.3973 180.733 11.3467 179.24 12.072C177.747 12.7973 176.061 13.16 174.184 13.16C171.965 13.16 169.981 12.68 168.232 11.72C166.504 10.7387 165.149 9.384 164.168 7.656C163.208 5.928 162.728 3.95467 162.728 1.736C162.728 -0.482668 163.208 -2.456 164.168 -4.184C165.149 -5.93333 166.504 -7.288 168.232 -8.248C169.96 -9.22933 171.933 -9.72 174.152 -9.72C176.84 -9.72 179.101 -9.06933 180.936 -7.768C182.792 -6.46667 184.019 -4.664 184.616 -2.36H178.568ZM186.943 4.04C186.943 2.20533 187.284 0.594666 187.967 -0.792001C188.671 -2.17867 189.62 -3.24533 190.815 -3.992C192.01 -4.73867 193.343 -5.112 194.815 -5.112C196.074 -5.112 197.172 -4.856 198.111 -4.344C199.071 -3.832 199.807 -3.16 200.319 -2.328V-4.856H205.791V13H200.319V10.472C199.786 11.304 199.039 11.976 198.079 12.488C197.14 13 196.042 13.256 194.783 13.256C193.332 13.256 192.01 12.8827 190.815 12.136C189.62 11.368 188.671 10.2907 187.967 8.904C187.284 7.496 186.943 5.87467 186.943 4.04ZM200.319 4.072C200.319 2.70667 199.935 1.62933 199.167 0.839999C198.42 0.0506659 197.503 -0.344001 196.415 -0.344001C195.327 -0.344001 194.399 0.0506659 193.631 0.839999C192.884 1.608 192.511 2.67467 192.511 4.04C192.511 5.40533 192.884 6.49333 193.631 7.304C194.399 8.09333 195.327 8.488 196.415 8.488C197.503 8.488 198.42 8.09333 199.167 7.304C199.935 6.51467 200.319 5.43733 200.319 4.072ZM232.534 -5.048C234.752 -5.048 236.512 -4.376 237.814 -3.032C239.136 -1.688 239.798 0.178666 239.798 2.568V13H234.358V3.304C234.358 2.152 234.048 1.26667 233.43 0.648C232.832 0.00799974 232 -0.312 230.934 -0.312C229.867 -0.312 229.024 0.00799974 228.406 0.648C227.808 1.26667 227.51 2.152 227.51 3.304V13H222.07V3.304C222.07 2.152 221.76 1.26667 221.142 0.648C220.544 0.00799974 219.712 -0.312 218.646 -0.312C217.579 -0.312 216.736 0.00799974 216.118 0.648C215.52 1.26667 215.222 2.152 215.222 3.304V13H209.75V-4.856H215.222V-2.616C215.776 -3.36267 216.502 -3.94933 217.398 -4.376C218.294 -4.824 219.307 -5.048 220.438 -5.048C221.782 -5.048 222.976 -4.76 224.022 -4.184C225.088 -3.608 225.92 -2.78667 226.518 -1.72C227.136 -2.70133 227.979 -3.50133 229.046 -4.12C230.112 -4.73867 231.275 -5.048 232.534 -5.048ZM260.457 3.784C260.457 4.296 260.425 4.82933 260.361 5.384H247.977C248.062 6.49333 248.414 7.34667 249.033 7.944C249.673 8.52 250.451 8.808 251.369 8.808C252.734 8.808 253.683 8.232 254.217 7.08H260.041C259.742 8.25333 259.198 9.30933 258.409 10.248C257.641 11.1867 256.67 11.9227 255.497 12.456C254.323 12.9893 253.011 13.256 251.561 13.256C249.811 13.256 248.254 12.8827 246.889 12.136C245.523 11.3893 244.457 10.3227 243.689 8.936C242.921 7.54933 242.537 5.928 242.537 4.072C242.537 2.216 242.91 0.594666 243.657 -0.792001C244.425 -2.17867 245.491 -3.24533 246.857 -3.992C248.222 -4.73867 249.79 -5.112 251.561 -5.112C253.289 -5.112 254.825 -4.74933 256.169 -4.024C257.513 -3.29867 258.558 -2.264 259.305 -0.920001C260.073 0.423999 260.457 1.992 260.457 3.784ZM254.857 2.344C254.857 1.40533 254.537 0.658666 253.897 0.103999C253.257 -0.450667 252.457 -0.728001 251.497 -0.728001C250.579 -0.728001 249.801 -0.461334 249.161 0.0719995C248.542 0.605333 248.158 1.36267 248.009 2.344H254.857Z" fill="url(#paint1_linear_162_572)"/>
</g>
</g>
</g>
<defs>
<linearGradient id="paint0_linear_162_572" x1="2.5594e-10" y1="2.5" x2="60" y2="2.5" gradientUnits="userSpaceOnUse">
<stop stop-color="white"/>
<stop offset="1" stop-color="#E0768C"/>
</linearGradient>
<linearGradient id="paint1_linear_162_572" x1="54.5" y1="2" x2="264.5" y2="2" gradientUnits="userSpaceOnUse">
<stop stop-color="#DF748C"/>
<stop offset="1" stop-color="#F6976C"/>
</linearGradient>
<clipPath id="clip0_162_572">
<rect width="320" height="2628" fill="white" transform="translate(-2 -1059)"/>
</clipPath>
</defs>
</svg>
