<svg width="59" height="4" viewBox="0 0 59 4" fill="none" xmlns="http://www.w3.org/2000/svg">
<rect width="59" height="4" fill="#1E1E1E"/>
<g id="Mobile">
<g id="Home" clip-path="url(#clip0_162_572)">
<rect width="320" height="2628" transform="translate(-261 -1059)" fill="white"/>
<g id="Frame 106">
<path id="Vector header" d="M57 3.5C57.8284 3.5 58.5 2.82843 58.5 2C58.5 1.17157 57.8284 0.5 57 0.5L57 3.5ZM1.38746e-09 3.5L57 3.5L57 0.5L-1.38746e-09 0.5L1.38746e-09 3.5Z" fill="url(#paint0_linear_162_572)"/>
<path id="About Game" d="M-188.391 9.032H-196.775L-198.119 13H-203.847L-195.719 -9.464H-189.383L-181.255 13H-187.047L-188.391 9.032ZM-189.799 4.808L-192.583 -3.416L-195.335 4.808H-189.799ZM-173.31 -2.328C-172.798 -3.16 -172.062 -3.832 -171.102 -4.344C-170.142 -4.856 -169.043 -5.112 -167.806 -5.112C-166.334 -5.112 -165 -4.73867 -163.806 -3.992C-162.611 -3.24533 -161.672 -2.17867 -160.99 -0.792001C-160.286 0.594666 -159.934 2.20533 -159.934 4.04C-159.934 5.87467 -160.286 7.496 -160.99 8.904C-161.672 10.2907 -162.611 11.368 -163.806 12.136C-165 12.8827 -166.334 13.256 -167.806 13.256C-169.064 13.256 -170.163 13.0107 -171.102 12.52C-172.04 12.008 -172.776 11.336 -173.31 10.504V13H-178.782V-10.68H-173.31V-2.328ZM-165.502 4.04C-165.502 2.67467 -165.886 1.608 -166.654 0.839999C-167.4 0.0506659 -168.328 -0.344001 -169.438 -0.344001C-170.526 -0.344001 -171.454 0.0506659 -172.222 0.839999C-172.968 1.62933 -173.342 2.70667 -173.342 4.072C-173.342 5.43733 -172.968 6.51467 -172.222 7.304C-171.454 8.09333 -170.526 8.488 -169.438 8.488C-168.35 8.488 -167.422 8.09333 -166.654 7.304C-165.886 6.49333 -165.502 5.40533 -165.502 4.04ZM-148.935 13.256C-150.684 13.256 -152.263 12.8827 -153.671 12.136C-155.058 11.3893 -156.156 10.3227 -156.967 8.936C-157.756 7.54933 -158.151 5.928 -158.151 4.072C-158.151 2.23733 -157.746 0.626666 -156.935 -0.76C-156.124 -2.168 -155.015 -3.24533 -153.607 -3.992C-152.199 -4.73867 -150.62 -5.112 -148.871 -5.112C-147.122 -5.112 -145.543 -4.73867 -144.135 -3.992C-142.727 -3.24533 -141.618 -2.168 -140.807 -0.76C-139.996 0.626666 -139.591 2.23733 -139.591 4.072C-139.591 5.90667 -140.007 7.528 -140.839 8.936C-141.65 10.3227 -142.77 11.3893 -144.199 12.136C-145.607 12.8827 -147.186 13.256 -148.935 13.256ZM-148.935 8.52C-147.89 8.52 -147.004 8.136 -146.279 7.368C-145.532 6.6 -145.159 5.50133 -145.159 4.072C-145.159 2.64267 -145.522 1.544 -146.247 0.775999C-146.951 0.00799942 -147.826 -0.376 -148.871 -0.376C-149.938 -0.376 -150.823 0.00799942 -151.527 0.775999C-152.231 1.52267 -152.583 2.62133 -152.583 4.072C-152.583 5.50133 -152.242 6.6 -151.559 7.368C-150.855 8.136 -149.98 8.52 -148.935 8.52ZM-119.056 -4.856V13H-124.528V10.568C-125.083 11.3573 -125.84 11.9973 -126.8 12.488C-127.739 12.9573 -128.784 13.192 -129.936 13.192C-131.301 13.192 -132.507 12.8933 -133.552 12.296C-134.597 11.6773 -135.408 10.792 -135.984 9.64C-136.56 8.488 -136.848 7.13333 -136.848 5.576V-4.856H-131.408V4.84C-131.408 6.03467 -131.099 6.96267 -130.48 7.624C-129.861 8.28533 -129.029 8.616 -127.984 8.616C-126.917 8.616 -126.075 8.28533 -125.456 7.624C-124.837 6.96267 -124.528 6.03467 -124.528 4.84V-4.856H-119.056ZM-105.173 8.36V13H-107.957C-109.941 13 -111.488 12.52 -112.597 11.56C-113.707 10.5787 -114.261 8.98933 -114.261 6.792V-0.312H-116.437V-4.856H-114.261V-9.208H-108.789V-4.856H-105.205V-0.312H-108.789V6.856C-108.789 7.38933 -108.661 7.77333 -108.405 8.008C-108.149 8.24267 -107.723 8.36 -107.125 8.36H-105.173ZM-80.4321 -2.36C-80.8375 -3.10667 -81.4241 -3.672 -82.1921 -4.056C-82.9388 -4.46133 -83.8241 -4.664 -84.8481 -4.664C-86.6188 -4.664 -88.0375 -4.07733 -89.1041 -2.904C-90.1708 -1.752 -90.7041 -0.205334 -90.7041 1.736C-90.7041 3.80533 -90.1495 5.42667 -89.0401 6.6C-87.9095 7.752 -86.3628 8.328 -84.4001 8.328C-83.0561 8.328 -81.9255 7.98667 -81.0081 7.304C-80.0695 6.62133 -79.3868 5.64 -78.9601 4.36H-85.9041V0.327999H-74.0001V5.416C-74.4055 6.78133 -75.0988 8.05067 -76.0801 9.224C-77.0401 10.3973 -78.2668 11.3467 -79.7601 12.072C-81.2535 12.7973 -82.9388 13.16 -84.8161 13.16C-87.0348 13.16 -89.0188 12.68 -90.7681 11.72C-92.4961 10.7387 -93.8508 9.384 -94.8321 7.656C-95.7921 5.928 -96.2721 3.95467 -96.2721 1.736C-96.2721 -0.482668 -95.7921 -2.456 -94.8321 -4.184C-93.8508 -5.93333 -92.4961 -7.288 -90.7681 -8.248C-89.0401 -9.22933 -87.0668 -9.72 -84.8481 -9.72C-82.1601 -9.72 -79.8988 -9.06933 -78.0641 -7.768C-76.2081 -6.46667 -74.9815 -4.664 -74.3841 -2.36H-80.4321ZM-72.0571 4.04C-72.0571 2.20533 -71.7158 0.594666 -71.0331 -0.792001C-70.3291 -2.17867 -69.3798 -3.24533 -68.1851 -3.992C-66.9905 -4.73867 -65.6571 -5.112 -64.1851 -5.112C-62.9265 -5.112 -61.8278 -4.856 -60.8891 -4.344C-59.9291 -3.832 -59.1931 -3.16 -58.6811 -2.328V-4.856H-53.2091V13H-58.6811V10.472C-59.2145 11.304 -59.9611 11.976 -60.9211 12.488C-61.8598 13 -62.9585 13.256 -64.2171 13.256C-65.6678 13.256 -66.9905 12.8827 -68.1851 12.136C-69.3798 11.368 -70.3291 10.2907 -71.0331 8.904C-71.7158 7.496 -72.0571 5.87467 -72.0571 4.04ZM-58.6811 4.072C-58.6811 2.70667 -59.0651 1.62933 -59.8331 0.839999C-60.5798 0.0506659 -61.4971 -0.344001 -62.5851 -0.344001C-63.6731 -0.344001 -64.6011 0.0506659 -65.3691 0.839999C-66.1158 1.608 -66.4891 2.67467 -66.4891 4.04C-66.4891 5.40533 -66.1158 6.49333 -65.3691 7.304C-64.6011 8.09333 -63.6731 8.488 -62.5851 8.488C-61.4971 8.488 -60.5798 8.09333 -59.8331 7.304C-59.0651 6.51467 -58.6811 5.43733 -58.6811 4.072ZM-26.4664 -5.048C-24.2477 -5.048 -22.4877 -4.376 -21.1864 -3.032C-19.8637 -1.688 -19.2024 0.178666 -19.2024 2.568V13H-24.6424V3.304C-24.6424 2.152 -24.9517 1.26667 -25.5704 0.648C-26.1677 0.00799974 -26.9997 -0.312 -28.0664 -0.312C-29.133 -0.312 -29.9757 0.00799974 -30.5944 0.648C-31.1917 1.26667 -31.4904 2.152 -31.4904 3.304V13H-36.9304V3.304C-36.9304 2.152 -37.2397 1.26667 -37.8584 0.648C-38.4557 0.00799974 -39.2877 -0.312 -40.3544 -0.312C-41.421 -0.312 -42.2637 0.00799974 -42.8824 0.648C-43.4797 1.26667 -43.7784 2.152 -43.7784 3.304V13H-49.2504V-4.856H-43.7784V-2.616C-43.2237 -3.36267 -42.4984 -3.94933 -41.6024 -4.376C-40.7064 -4.824 -39.693 -5.048 -38.5624 -5.048C-37.2184 -5.048 -36.0237 -4.76 -34.9784 -4.184C-33.9117 -3.608 -33.0797 -2.78667 -32.4824 -1.72C-31.8637 -2.70133 -31.021 -3.50133 -29.9544 -4.12C-28.8877 -4.73867 -27.725 -5.048 -26.4664 -5.048ZM1.45662 3.784C1.45662 4.296 1.42463 4.82933 1.36063 5.384H-11.0234C-10.938 6.49333 -10.586 7.34667 -9.96737 7.944C-9.32737 8.52 -8.54871 8.808 -7.63137 8.808C-6.26604 8.808 -5.31671 8.232 -4.78337 7.08H1.04063C0.74196 8.25333 0.19796 9.30933 -0.591373 10.248C-1.35937 11.1867 -2.33004 11.9227 -3.50337 12.456C-4.67671 12.9893 -5.98871 13.256 -7.43937 13.256C-9.18871 13.256 -10.746 12.8827 -12.1114 12.136C-13.4767 11.3893 -14.5434 10.3227 -15.3114 8.936C-16.0794 7.54933 -16.4634 5.928 -16.4634 4.072C-16.4634 2.216 -16.09 0.594666 -15.3434 -0.792001C-14.5754 -2.17867 -13.5087 -3.24533 -12.1434 -3.992C-10.778 -4.73867 -9.21004 -5.112 -7.43937 -5.112C-5.71137 -5.112 -4.17537 -4.74933 -2.83137 -4.024C-1.48737 -3.29867 -0.442041 -2.264 0.304626 -0.920001C1.07263 0.423999 1.45662 1.992 1.45662 3.784ZM-4.14337 2.344C-4.14337 1.40533 -4.46337 0.658666 -5.10337 0.103999C-5.74337 -0.450667 -6.54337 -0.728001 -7.50337 -0.728001C-8.42071 -0.728001 -9.19937 -0.461334 -9.83937 0.0719995C-10.458 0.605333 -10.842 1.36267 -10.9914 2.344H-4.14337Z" fill="url(#paint1_linear_162_572)"/>
</g>
</g>
</g>
<defs>
<linearGradient id="paint0_linear_162_572" x1="4.62486e-10" y1="2.5" x2="57" y2="2.5" gradientUnits="userSpaceOnUse">
<stop stop-color="#F6976E"/>
<stop offset="1" stop-color="white"/>
</linearGradient>
<linearGradient id="paint1_linear_162_572" x1="-204.5" y1="2" x2="5.49998" y2="2" gradientUnits="userSpaceOnUse">
<stop stop-color="#DF748C"/>
<stop offset="1" stop-color="#F6976C"/>
</linearGradient>
<clipPath id="clip0_162_572">
<rect width="320" height="2628" fill="white" transform="translate(-261 -1059)"/>
</clipPath>
</defs>
</svg>
