<svg width="37" height="4" viewBox="0 0 37 4" fill="none" xmlns="http://www.w3.org/2000/svg">
<rect width="37" height="4" fill="#1E1E1E"/>
<g id="Home" clip-path="url(#clip0_162_572)">
<rect width="320" height="2628" transform="translate(-2 -1732)" fill="white"/>
<g id="Frame 143">
<g id="Frame 117">
<path id="Vector header" d="M35 3.5C35.8284 3.5 36.5 2.82843 36.5 2C36.5 1.17157 35.8284 0.5 35 0.5V3.5ZM0 3.5H35V0.5H0V3.5Z" fill="url(#paint0_linear_162_572)"/>
<path id="Game Features" d="M49.2866 -2.36C48.8813 -3.10667 48.2946 -3.672 47.5266 -4.056C46.78 -4.46133 45.8946 -4.664 44.8706 -4.664C43.1 -4.664 41.6813 -4.07733 40.6146 -2.904C39.548 -1.752 39.0146 -0.205334 39.0146 1.736C39.0146 3.80533 39.5693 5.42667 40.6786 6.6C41.8093 7.752 43.356 8.328 45.3186 8.328C46.6626 8.328 47.7933 7.98667 48.7106 7.304C49.6493 6.62133 50.332 5.64 50.7586 4.36H43.8146V0.327999H55.7186V5.416C55.3133 6.78133 54.62 8.05067 53.6386 9.224C52.6786 10.3973 51.452 11.3467 49.9586 12.072C48.4653 12.7973 46.78 13.16 44.9026 13.16C42.684 13.16 40.7 12.68 38.9506 11.72C37.2226 10.7387 35.868 9.384 34.8866 7.656C33.9266 5.928 33.4466 3.95467 33.4466 1.736C33.4466 -0.482668 33.9266 -2.456 34.8866 -4.184C35.868 -5.93333 37.2226 -7.288 38.9506 -8.248C40.6786 -9.22933 42.652 -9.72 44.8706 -9.72C47.5586 -9.72 49.82 -9.06933 51.6546 -7.768C53.5106 -6.46667 54.7373 -4.664 55.3346 -2.36H49.2866ZM57.6616 4.04C57.6616 2.20533 58.003 0.594666 58.6856 -0.792001C59.3896 -2.17867 60.339 -3.24533 61.5336 -3.992C62.7283 -4.73867 64.0616 -5.112 65.5336 -5.112C66.7923 -5.112 67.891 -4.856 68.8296 -4.344C69.7896 -3.832 70.5256 -3.16 71.0376 -2.328V-4.856H76.5096V13H71.0376V10.472C70.5043 11.304 69.7576 11.976 68.7976 12.488C67.859 13 66.7603 13.256 65.5016 13.256C64.051 13.256 62.7283 12.8827 61.5336 12.136C60.339 11.368 59.3896 10.2907 58.6856 8.904C58.003 7.496 57.6616 5.87467 57.6616 4.04ZM71.0376 4.072C71.0376 2.70667 70.6536 1.62933 69.8856 0.839999C69.139 0.0506659 68.2216 -0.344001 67.1336 -0.344001C66.0456 -0.344001 65.1176 0.0506659 64.3496 0.839999C63.603 1.608 63.2296 2.67467 63.2296 4.04C63.2296 5.40533 63.603 6.49333 64.3496 7.304C65.1176 8.09333 66.0456 8.488 67.1336 8.488C68.2216 8.488 69.139 8.09333 69.8856 7.304C70.6536 6.51467 71.0376 5.43733 71.0376 4.072ZM103.252 -5.048C105.471 -5.048 107.231 -4.376 108.532 -3.032C109.855 -1.688 110.516 0.178666 110.516 2.568V13H105.076V3.304C105.076 2.152 104.767 1.26667 104.148 0.648C103.551 0.00799974 102.719 -0.312 101.652 -0.312C100.586 -0.312 99.743 0.00799974 99.1244 0.648C98.527 1.26667 98.2284 2.152 98.2284 3.304V13H92.7884V3.304C92.7884 2.152 92.479 1.26667 91.8604 0.648C91.263 0.00799974 90.431 -0.312 89.3644 -0.312C88.2977 -0.312 87.455 0.00799974 86.8364 0.648C86.239 1.26667 85.9404 2.152 85.9404 3.304V13H80.4684V-4.856H85.9404V-2.616C86.495 -3.36267 87.2204 -3.94933 88.1164 -4.376C89.0124 -4.824 90.0257 -5.048 91.1564 -5.048C92.5004 -5.048 93.695 -4.76 94.7404 -4.184C95.807 -3.608 96.639 -2.78667 97.2364 -1.72C97.855 -2.70133 98.6977 -3.50133 99.7644 -4.12C100.831 -4.73867 101.994 -5.048 103.252 -5.048ZM131.175 3.784C131.175 4.296 131.143 4.82933 131.079 5.384H118.695C118.781 6.49333 119.133 7.34667 119.751 7.944C120.391 8.52 121.17 8.808 122.087 8.808C123.453 8.808 124.402 8.232 124.935 7.08H130.759C130.461 8.25333 129.917 9.30933 129.127 10.248C128.359 11.1867 127.389 11.9227 126.215 12.456C125.042 12.9893 123.73 13.256 122.279 13.256C120.53 13.256 118.973 12.8827 117.607 12.136C116.242 11.3893 115.175 10.3227 114.407 8.936C113.639 7.54933 113.255 5.928 113.255 4.072C113.255 2.216 113.629 0.594666 114.375 -0.792001C115.143 -2.17867 116.21 -3.24533 117.575 -3.992C118.941 -4.73867 120.509 -5.112 122.279 -5.112C124.007 -5.112 125.543 -4.74933 126.887 -4.024C128.231 -3.29867 129.277 -2.264 130.023 -0.920001C130.791 0.423999 131.175 1.992 131.175 3.784ZM125.575 2.344C125.575 1.40533 125.255 0.658666 124.615 0.103999C123.975 -0.450667 123.175 -0.728001 122.215 -0.728001C121.298 -0.728001 120.519 -0.461334 119.879 0.0719995C119.261 0.605333 118.877 1.36267 118.727 2.344H125.575ZM155.467 -9.464V-5.08H146.315V-0.344001H153.163V3.912H146.315V13H140.843V-9.464H155.467ZM175.175 3.784C175.175 4.296 175.143 4.82933 175.079 5.384H162.695C162.781 6.49333 163.133 7.34667 163.751 7.944C164.391 8.52 165.17 8.808 166.087 8.808C167.453 8.808 168.402 8.232 168.935 7.08H174.759C174.461 8.25333 173.917 9.30933 173.127 10.248C172.359 11.1867 171.389 11.9227 170.215 12.456C169.042 12.9893 167.73 13.256 166.279 13.256C164.53 13.256 162.973 12.8827 161.607 12.136C160.242 11.3893 159.175 10.3227 158.407 8.936C157.639 7.54933 157.255 5.928 157.255 4.072C157.255 2.216 157.629 0.594666 158.375 -0.792001C159.143 -2.17867 160.21 -3.24533 161.575 -3.992C162.941 -4.73867 164.509 -5.112 166.279 -5.112C168.007 -5.112 169.543 -4.74933 170.887 -4.024C172.231 -3.29867 173.277 -2.264 174.023 -0.920001C174.791 0.423999 175.175 1.992 175.175 3.784ZM169.575 2.344C169.575 1.40533 169.255 0.658666 168.615 0.103999C167.975 -0.450667 167.175 -0.728001 166.215 -0.728001C165.298 -0.728001 164.519 -0.461334 163.879 0.0719995C163.261 0.605333 162.877 1.36267 162.727 2.344H169.575ZM176.974 4.04C176.974 2.20533 177.315 0.594666 177.998 -0.792001C178.702 -2.17867 179.651 -3.24533 180.846 -3.992C182.041 -4.73867 183.374 -5.112 184.846 -5.112C186.105 -5.112 187.203 -4.856 188.142 -4.344C189.102 -3.832 189.838 -3.16 190.35 -2.328V-4.856H195.822V13H190.35V10.472C189.817 11.304 189.07 11.976 188.11 12.488C187.171 13 186.073 13.256 184.814 13.256C183.363 13.256 182.041 12.8827 180.846 12.136C179.651 11.368 178.702 10.2907 177.998 8.904C177.315 7.496 176.974 5.87467 176.974 4.04ZM190.35 4.072C190.35 2.70667 189.966 1.62933 189.198 0.839999C188.451 0.0506659 187.534 -0.344001 186.446 -0.344001C185.358 -0.344001 184.43 0.0506659 183.662 0.839999C182.915 1.608 182.542 2.67467 182.542 4.04C182.542 5.40533 182.915 6.49333 183.662 7.304C184.43 8.09333 185.358 8.488 186.446 8.488C187.534 8.488 188.451 8.09333 189.198 7.304C189.966 6.51467 190.35 5.43733 190.35 4.072ZM209.733 8.36V13H206.949C204.965 13 203.418 12.52 202.309 11.56C201.2 10.5787 200.645 8.98933 200.645 6.792V-0.312H198.469V-4.856H200.645V-9.208H206.117V-4.856H209.701V-0.312H206.117V6.856C206.117 7.38933 206.245 7.77333 206.501 8.008C206.757 8.24267 207.184 8.36 207.781 8.36H209.733ZM230.413 -4.856V13H224.941V10.568C224.386 11.3573 223.629 11.9973 222.669 12.488C221.73 12.9573 220.685 13.192 219.533 13.192C218.168 13.192 216.962 12.8933 215.917 12.296C214.872 11.6773 214.061 10.792 213.485 9.64C212.909 8.488 212.621 7.13333 212.621 5.576V-4.856H218.061V4.84C218.061 6.03467 218.37 6.96267 218.989 7.624C219.608 8.28533 220.44 8.616 221.485 8.616C222.552 8.616 223.394 8.28533 224.013 7.624C224.632 6.96267 224.941 6.03467 224.941 4.84V-4.856H230.413ZM239.815 -1.88C240.455 -2.86133 241.255 -3.62933 242.215 -4.184C243.175 -4.76 244.242 -5.048 245.415 -5.048V0.743999H243.911C242.546 0.743999 241.522 1.04267 240.839 1.64C240.157 2.216 239.815 3.24 239.815 4.712V13H234.343V-4.856H239.815V-1.88ZM264.863 3.784C264.863 4.296 264.831 4.82933 264.767 5.384H252.383C252.468 6.49333 252.82 7.34667 253.439 7.944C254.079 8.52 254.858 8.808 255.775 8.808C257.14 8.808 258.09 8.232 258.623 7.08H264.447C264.148 8.25333 263.604 9.30933 262.815 10.248C262.047 11.1867 261.076 11.9227 259.903 12.456C258.73 12.9893 257.418 13.256 255.967 13.256C254.218 13.256 252.66 12.8827 251.295 12.136C249.93 11.3893 248.863 10.3227 248.095 8.936C247.327 7.54933 246.943 5.928 246.943 4.072C246.943 2.216 247.316 0.594666 248.063 -0.792001C248.831 -2.17867 249.898 -3.24533 251.263 -3.992C252.628 -4.73867 254.196 -5.112 255.967 -5.112C257.695 -5.112 259.231 -4.74933 260.575 -4.024C261.919 -3.29867 262.964 -2.264 263.711 -0.920001C264.479 0.423999 264.863 1.992 264.863 3.784ZM259.263 2.344C259.263 1.40533 258.943 0.658666 258.303 0.103999C257.663 -0.450667 256.863 -0.728001 255.903 -0.728001C254.986 -0.728001 254.207 -0.461334 253.567 0.0719995C252.948 0.605333 252.564 1.36267 252.415 2.344H259.263ZM275.014 13.256C273.456 13.256 272.07 12.9893 270.854 12.456C269.638 11.9227 268.678 11.1973 267.974 10.28C267.27 9.34133 266.875 8.296 266.79 7.144H272.198C272.262 7.76267 272.55 8.264 273.062 8.648C273.574 9.032 274.203 9.224 274.95 9.224C275.632 9.224 276.155 9.096 276.518 8.84C276.902 8.56267 277.094 8.21067 277.094 7.784C277.094 7.272 276.827 6.89867 276.294 6.664C275.76 6.408 274.896 6.13067 273.702 5.832C272.422 5.53333 271.355 5.224 270.502 4.904C269.648 4.56267 268.912 4.04 268.294 3.336C267.675 2.61067 267.366 1.64 267.366 0.424C267.366 -0.6 267.643 -1.528 268.198 -2.36C268.774 -3.21333 269.606 -3.88533 270.694 -4.376C271.803 -4.86667 273.115 -5.112 274.63 -5.112C276.87 -5.112 278.63 -4.55733 279.91 -3.448C281.211 -2.33867 281.958 -0.866667 282.15 0.967999H277.094C277.008 0.349332 276.731 -0.141334 276.262 -0.504001C275.814 -0.866667 275.216 -1.048 274.47 -1.048C273.83 -1.048 273.339 -0.92 272.998 -0.664001C272.656 -0.429334 272.486 -0.0986671 272.486 0.327999C272.486 0.84 272.752 1.224 273.286 1.48C273.84 1.736 274.694 1.992 275.846 2.248C277.168 2.58933 278.246 2.93067 279.078 3.272C279.91 3.592 280.635 4.12533 281.254 4.872C281.894 5.59733 282.224 6.57867 282.246 7.816C282.246 8.86133 281.947 9.8 281.35 10.632C280.774 11.4427 279.931 12.0827 278.822 12.552C277.734 13.0213 276.464 13.256 275.014 13.256Z" fill="#DB8421"/>
</g>
</g>
</g>
<defs>
<linearGradient id="paint0_linear_162_572" x1="0" y1="2.5" x2="35" y2="2.5" gradientUnits="userSpaceOnUse">
<stop stop-color="white"/>
<stop offset="0.5" stop-color="#DB8421"/>
</linearGradient>
<clipPath id="clip0_162_572">
<rect width="320" height="2628" fill="white" transform="translate(-2 -1732)"/>
</clipPath>
</defs>
</svg>
