<svg width="62" height="59" viewBox="0 0 62 59" fill="none" xmlns="http://www.w3.org/2000/svg">
<path d="M39.5024 0.0881538C38.9335 0.325165 38.7189 1.06852 38.3969 3.85878C38.032 7.04766 37.6027 8.70674 36.626 10.6459C35.8854 12.1111 35.1663 13.0483 33.7066 14.4489L33.1699 14.966L32.9767 14.5566C32.8694 14.3304 32.4938 13.6624 32.1396 13.0699C28.7372 7.37086 23.9396 3.42786 20.4299 3.42786C19.2385 3.42786 18.5409 3.90188 18.5409 4.70987C18.5409 5.09771 18.9917 6.48745 19.8288 8.65287C20.827 11.26 21.2778 14.0395 21.0202 16.1941C20.8485 17.7024 20.5372 18.7582 19.4532 21.473C18.6268 23.5415 18.2404 24.7373 18.0686 25.7177C17.972 26.2348 18.0364 26.127 18.4336 25.0928C18.8629 23.9832 19.3566 23.0998 20.1079 22.0871C21.2456 20.5788 22.0828 18.5319 22.4692 16.4096C22.6946 15.0845 22.7267 12.542 22.5228 11.4216C22.4477 10.9907 22.4155 10.5166 22.4477 10.3766C22.598 9.79483 23.6713 9.92411 25.2061 10.689C25.732 10.9583 26.2257 11.2277 26.3008 11.2923C26.4082 11.4 26.7516 11.6263 27.3312 11.9926C27.8249 12.2942 29.1021 13.4146 29.832 14.158C32.9982 17.4115 35.4453 22.3995 36.2718 27.3013C36.4757 28.5295 36.4435 32.591 36.1966 35.6937C35.9498 38.8394 35.9176 42.5885 36.1215 43.2888C36.2074 43.5581 36.3469 43.8598 36.4328 43.9567C36.583 44.1291 36.5616 44.183 36.2396 44.56C36.0356 44.7863 35.4883 45.4219 35.016 45.9713L34.1574 46.9625L33.5134 46.8763C32.0322 46.6824 29.8534 46.7793 27.6639 47.1564C23.9718 47.7704 23.3171 47.9967 16.8236 50.8516C13.2066 52.446 12.7343 52.6076 12.3372 52.4029C11.6718 52.0474 10.6629 50.6254 9.47152 48.3199C8.61289 46.6716 8.39823 46.0791 8.23723 44.7863C7.96891 42.7178 8.44116 39.7229 9.332 37.816C9.70765 37.0188 10.6307 35.7691 11.6074 34.7241C11.9938 34.3147 12.3158 33.9592 12.3158 33.9484C12.3158 33.9269 12.0582 34.0454 11.7576 34.1962C9.81498 35.1765 8.30163 36.5771 7.61472 38.0099C6.58435 40.1753 6.40189 42.6747 7.06734 45.842C7.31419 47.0271 7.282 47.6735 6.93854 48.4599C6.47702 49.5157 5.77938 49.9574 3.30006 50.7762C1.56132 51.3472 0.681215 51.7565 0.316294 52.1552C-0.0164287 52.5107 -0.102293 53.114 0.133833 53.4803C0.294828 53.728 0.369958 53.7604 0.767079 53.7173C1.01394 53.685 1.72231 53.4479 2.33409 53.1786C4.83488 52.0905 7.07807 51.498 8.18357 51.6273C9.1388 51.735 9.32126 51.8535 9.84718 52.683C10.6307 53.922 11.7791 55.0747 12.6807 55.5164C14.0867 56.2167 14.9775 56.1197 16.9095 55.0747C18.3477 54.2883 17.9935 54.9239 16.2118 56.3567C14.8487 57.434 14.4731 57.9727 14.6985 58.4467C14.9346 58.9423 15.2459 58.8884 15.9435 58.2313C17.6286 56.6368 18.8951 55.8073 19.7645 55.7103C20.1723 55.6565 20.3011 55.7103 21.0417 56.2167C21.8466 56.7661 22.8985 57.1862 23.4566 57.1862C24.4655 57.1862 25.1309 56.6153 27.2883 53.9004C28.7909 52.0043 30.6584 50.0975 31.6244 49.4511C32 49.2033 32.3328 49.0201 32.3542 49.0417C32.3864 49.0632 32.0108 49.6019 31.5385 50.2267C28.6943 53.9758 26.5799 57.9835 27.0199 58.8022C27.3097 59.3409 27.7176 58.8884 29.4671 56.0766C31.3775 53.017 31.9893 52.209 33.6422 50.5068C35.1341 48.9771 36.0142 47.9428 36.3147 47.3611C36.422 47.1564 36.8191 46.8978 37.6671 46.4669C39.6419 45.465 40.3396 45.0125 41.1338 44.2045C41.971 43.3642 42.6794 42.1145 42.9155 41.091C43.0335 40.5524 43.0765 40.4877 43.3233 40.4877C43.7419 40.4877 44.4181 40.046 44.6435 39.6259C44.8474 39.2596 44.8582 38.6455 44.6757 38.2038C44.622 38.0638 44.7401 37.9345 45.1909 37.6436C47.3375 36.2646 50.7935 34.4763 52.3498 33.9592L53.2621 33.6468L56.2136 33.6575C58.167 33.6575 59.4013 33.7114 59.8629 33.8083C60.2492 33.8838 60.7859 33.9699 61.0542 33.9915C61.9021 34.0777 62.2992 33.6791 61.7411 33.3128C61.5265 33.1727 61.3655 33.1512 60.9576 33.2266C60.6786 33.2697 59.7985 33.2912 59.0042 33.2589C56.1707 33.1727 53.8202 33.2158 53.1011 33.3666C52.0063 33.6144 50.5144 34.2285 48.7757 35.1765C48.1961 35.489 47.5414 35.8229 47.3267 35.9091L46.9296 36.0707L47.1979 35.8553C47.3482 35.726 48.1961 35.0796 49.0869 34.4009C51.899 32.2786 53.3372 31.4275 54.593 31.1581C55.9775 30.8673 58.4568 31.0289 59.0471 31.4598C59.4657 31.7614 60.3029 31.8476 60.4961 31.6106C60.6249 31.4598 60.6142 31.4059 60.4532 31.2228C60.2063 30.9534 59.5945 30.7488 59.2296 30.8242C59.0686 30.8565 58.4568 30.8134 57.8773 30.738C56.5034 30.5333 55.9239 30.5441 54.7754 30.738C52.983 31.0504 50.8686 32.3971 46.1568 36.2108L44.3108 37.6975L44.0317 37.5143C43.6024 37.2342 42.8082 37.2666 42.3681 37.579C41.9602 37.8699 41.5739 38.6671 41.6597 39.0334C41.7134 39.2381 41.649 39.3458 41.327 39.5828C41.1016 39.7444 40.6401 40.143 40.3074 40.477C39.9639 40.8002 39.6741 41.048 39.6527 41.0156C39.6205 40.9941 39.9317 40.4662 40.3396 39.8521C41.7993 37.6113 42.615 36.0384 43.5809 33.5929C45.266 29.3051 46.4037 24.9635 46.9511 20.7189C47.2409 18.4242 47.2194 13.5978 46.8974 11.6371C46.1354 6.97225 44.6435 3.41708 42.5828 1.38094C41.4987 0.314392 40.2322 -0.22427 39.5024 0.0881538ZM42.2178 3.01847C42.7652 3.611 43.0228 4.64523 42.7116 4.95765C42.6042 5.06539 42.4969 5.05461 42.1749 4.88224C41.4129 4.46209 40.7796 2.94306 41.2411 2.60909C41.4665 2.43672 41.8422 2.59832 42.2178 3.01847ZM44.1068 5.60405C44.4074 6.04575 44.461 7.00457 44.182 7.06921C43.9351 7.1123 43.538 6.53054 43.4736 6.01343C43.3663 5.20544 43.6775 5.01152 44.1068 5.60405ZM25.249 7.34931C25.8393 7.61864 26.376 8.16808 26.376 8.49127C26.376 8.60978 26.2794 8.74983 26.1506 8.81447C25.5281 9.15921 23.9074 8.17885 23.9074 7.45704C23.9074 7.02611 24.4655 6.97225 25.249 7.34931ZM40.9621 7.72637C42.4647 8.9222 44.4074 12.8221 45.0299 15.8709C45.4163 17.7562 45.5129 19.0383 45.4485 21.5161C45.3411 25.6853 44.6972 28.3571 43.0228 31.5998C42.3144 32.9573 41.9388 33.5929 39.7707 37.1588C39.2019 38.0853 38.5364 39.2165 38.2896 39.669C38.0427 40.1215 37.8066 40.477 37.7851 40.4447C37.7529 40.4123 37.7958 39.8952 37.871 39.2811C37.9676 38.5701 38.0212 37.1373 38.0212 35.2627C38.0105 32.6987 37.9783 32.117 37.7207 30.2855C37.0982 25.89 36.1644 22.1086 34.8013 18.5104C34.5223 17.767 34.1788 16.9375 34.0393 16.6574C33.8998 16.3773 33.7817 16.0972 33.7817 16.0325C33.7817 15.9787 33.9856 15.7955 34.2325 15.6447C34.8228 15.2676 36.626 13.4577 37.1841 12.6928C38.1822 11.2923 38.9872 9.74097 39.4165 8.38354C39.6956 7.47859 39.8566 7.28467 40.2322 7.34931C40.404 7.37086 40.726 7.54323 40.9621 7.72637ZM27.943 8.55591C28.6514 8.90065 29.027 9.78406 28.4582 9.78406C27.9108 9.78406 27.138 8.96529 27.299 8.55591C27.3849 8.34045 27.4922 8.34045 27.943 8.55591ZM29.7032 48.934C29.7032 48.9555 29.4885 49.1063 29.2202 49.2679C28.4904 49.6881 27.3849 50.6469 25.2705 52.683C22.877 54.9885 22.5658 55.2471 22.2008 55.2471C21.8788 55.2471 21.0309 54.7192 20.1723 53.9866L19.6035 53.491L21.1383 52.5753C23.0165 51.4549 25.1524 50.3453 26.376 49.8605C27.8034 49.3002 29.7032 48.7724 29.7032 48.934Z" fill="url(#paint0_linear_167_2020)"/>
<defs>
<linearGradient id="paint0_linear_167_2020" x1="31" y1="3.05176e-05" x2="31" y2="59" gradientUnits="userSpaceOnUse">
<stop stop-color="#656565"/>
<stop offset="1" stop-color="#383838"/>
</linearGradient>
</defs>
</svg>
