<svg width="66" height="77" viewBox="0 0 66 77" fill="none" xmlns="http://www.w3.org/2000/svg">
<path id="Vector" d="M14.2104 0.407813C13.2414 0.21303 11.6367 0.629289 10.4435 1.39915C8.06238 2.95851 6.35945 7.14729 5.93521 12.5219C5.69415 15.6484 5.83729 18.0518 6.47716 22.2173C7.42405 28.3006 9.84257 38.665 11.0639 41.8235C11.9979 44.2691 14.394 48.7358 15.8151 50.6835C16.21 51.2099 16.2082 51.242 15.8768 51.6142C15.4074 52.1389 14.6772 53.375 14.5364 53.9071L14.4208 54.3377L13.0198 53.479L11.6259 52.608L11.0677 52.9985C10.7582 53.2176 9.67913 54.0203 8.67343 54.7823L6.85176 56.1508L4.9763 56.3444C3.93857 56.4415 2.50086 56.5398 1.78482 56.5408C0.525903 56.5599 0.0450835 56.7299 0.519279 57.0037C0.756377 57.1405 3.69949 56.9997 5.85545 56.7526L7.19333 56.5967L9.38726 54.9292L11.5615 53.267L12.9717 54.0812L14.3693 54.8881L14.5798 55.5898C14.693 55.9701 15.0145 56.537 15.2797 56.8559C15.552 57.1623 15.7226 57.4432 15.6493 57.4837C15.5956 57.519 14.9957 57.5208 14.3386 57.5061C13.6619 57.4967 13.0279 57.5285 12.9152 57.5795C12.8098 57.618 11.7316 58.7361 10.5262 60.046L8.34804 62.4353L6.21816 63.5595C4.30824 64.5621 3.85018 64.8944 4.19958 65.0961C4.2495 65.125 5.28479 64.6286 6.48297 63.9942L8.65935 62.8471L10.8696 60.4598C12.0947 59.1447 13.0996 58.0671 13.1192 58.0619C13.1585 58.0515 13.8693 58.0308 14.7354 58.0004C16.2729 57.9598 16.3175 57.969 17.3427 58.5277C17.9311 58.8342 18.5784 59.1251 18.8068 59.1907C19.194 59.2982 19.457 59.1019 19.306 58.8158C19.1551 58.5297 19.3057 57.0585 19.517 56.8655C19.6262 56.7628 20.0012 56.7472 20.4027 56.8299C21.0523 56.9728 21.1396 57.0232 22.331 58.1586C24.4679 60.2212 30.2697 67.0023 30.619 67.867L30.798 68.3351L30.2255 68.0874C29.7404 67.8902 24.8068 65.3402 22.794 64.2444C22.4873 64.0839 22.3357 64.0295 22.4514 64.1461C22.5547 64.2554 22.8634 64.931 23.1363 65.6687C23.9141 67.8086 25.3558 70.0666 26.5104 70.9487C26.929 71.2899 27.0557 71.3298 27.149 71.1682C27.2208 71.0439 27.0732 70.8095 26.6939 70.4579C25.9352 69.7546 24.623 67.8201 23.9805 66.4545C23.4693 65.3802 23.3355 64.6897 23.727 65.1644C23.9975 65.5029 29.8341 68.8229 32.3536 70.0786C39.0973 73.4416 47.039 76.8333 48.2942 76.8783C49.3618 76.9311 50.5868 76.279 52.2678 74.7796C53.4458 73.7191 54.131 73.2528 54.8137 73.0501C55.0961 72.9645 56.437 72.9762 57.7796 73.0717C62.2427 73.4106 65.1883 73.006 65.7697 71.9989C65.9205 71.7378 65.7384 71.1022 65.379 70.6295C64.2299 69.1041 59.0471 66.2941 54.8191 64.914C53.8004 64.5746 54.8536 65.3152 57.7684 66.9815C61.0647 68.8514 61.7008 69.3347 61.9022 70.0809C62.0347 70.5719 61.8571 70.8506 61.2063 71.1711C60.4427 71.5425 58.9289 71.3979 56.5435 70.7169C55.4266 70.4036 54.2382 70.0988 53.9116 70.0593C53.1618 69.9746 51.9325 70.2595 49.7394 71.0322C45.4728 72.5142 42.5313 72.7388 39.2501 71.8225C37.8977 71.456 35.1276 70.4038 33.2872 69.5567C32.3831 69.1342 32.3332 69.1054 32.4768 68.8567C32.6849 68.4962 32.3883 67.9437 31.8018 67.605C31.5148 67.4393 30.7546 66.6523 29.9841 65.7102C27.7562 62.9983 24.6255 59.4005 23.6641 58.4144C23.146 57.8998 22.7598 57.4448 22.7813 57.4075C22.8029 57.3702 23.3435 57.5 23.9822 57.7195C24.6155 57.9194 26.2943 58.441 27.7216 58.8507C29.1418 59.2728 30.4406 59.6745 30.6243 59.7309C31.131 59.8908 34.1357 60.6807 35.5097 61.0098C37.0746 61.3829 41.2812 62.1373 42.5183 62.2713C45.4154 62.5847 45.2726 62.6017 46.4083 61.9313C48.0646 60.9646 49.06 60.0474 50.0178 58.5614C50.9827 57.063 51.3267 56.0349 51.3869 54.3456C51.4633 52.5995 50.8117 49.4052 49.7106 46.0675L49.2291 44.5959L49.5143 46.0039C50.1326 48.9965 50.179 51.5098 49.6931 54.0805C49.4339 55.4228 49.3674 55.5668 48.3535 57.3518C47.3701 59.0551 47.2159 59.2645 46.5968 59.7028C45.627 60.4027 44.3693 60.6214 43.0184 60.3388C42.0369 60.1368 41.723 59.9887 39.7514 58.8504C38.5606 58.1463 36.7156 57.048 35.6693 56.4107C33.2593 54.9364 32.0569 54.5406 28.23 54.022C27.3411 53.8901 26.115 53.6795 25.5172 53.5333C24.9195 53.3871 24.1467 53.2558 23.7932 53.2341C23.279 53.2025 22.8635 53.0289 21.2643 52.1387C19.7026 51.2702 19.2121 51.0534 18.4839 50.9313L17.6219 50.7818L17.3761 48.7003C17.2365 47.5588 17.0162 45.9231 16.8793 45.065C16.7425 44.2069 16.6057 43.3488 16.5848 43.1544C15.9817 39.2422 13.8869 31.833 11.909 26.6132C11.4321 25.393 11.0907 24.2841 11.1125 24.131C11.259 23.5027 10.1394 22.243 9.73313 22.572C9.44137 22.818 9.5411 23.5387 9.94848 24.0723C10.3487 24.6183 11.0866 26.3373 11.4686 27.6353C11.5375 27.8906 11.628 28.1086 11.6654 28.1302C11.7278 28.1663 11.788 28.3502 12.7263 31.163C13.9001 34.6919 15.1262 39.3119 15.6324 42.1238C15.6923 42.4236 15.8294 43.1659 15.942 43.7779C16.0545 44.3899 16.249 45.6957 16.3783 46.6821C16.5076 47.6685 16.6301 48.5515 16.637 48.6549C16.7666 49.5254 16.8472 50.6826 16.7848 50.6466C16.66 50.5745 14.3906 46.1479 13.8336 44.8648C11.5821 39.802 10.3958 36.2658 9.79328 32.7849C9.6792 32.0892 9.38532 29.9468 9.14976 28.0205C7.60053 15.2571 8.06993 8.4498 10.5948 7.18895C11.4657 6.74686 12.912 7.38298 14.7001 9.01212C15.5889 9.80705 19.2131 13.7892 20.0937 14.9441C20.2556 15.1536 20.4371 15.3579 20.4852 15.4188C20.5457 15.4869 21.0601 16.0657 21.6403 16.7322C22.2205 17.3987 22.7651 18.0116 22.8506 18.0941C22.9361 18.1766 23.5238 18.7148 24.1471 19.3068C25.4916 20.5803 26.2684 21.1946 29.2193 23.3458C31.5393 25.0334 32.6577 26.0935 33.0338 26.9406C33.3176 27.6018 33.5352 28.9541 33.5459 30.2035L33.5626 31.2409L34.2517 30.0474C35.0413 28.6798 35.4982 27.4848 35.5398 26.6635C35.6006 25.4055 34.8873 23.8168 33.6554 22.4922C33.3884 22.2054 32.1025 21.032 30.8023 19.8835C27.8028 17.24 27.1231 16.4 23.4695 10.8261C20.0596 5.60828 19.6594 5.06226 17.9165 3.21061C16.5084 1.7014 15.0188 0.592716 14.2104 0.407813ZM17.0977 4.19661C17.3827 5.0574 15.7882 6.29179 14.3346 6.33112C13.2685 6.3621 12.7709 6.15769 12.5688 5.64317C12.2657 4.87138 13.145 3.95348 14.5747 3.5522C15.7756 3.20122 16.8623 3.48049 17.0977 4.19661ZM11.9807 3.34758C12.2486 3.94983 11.2853 4.86902 10.2922 4.97529C9.55809 5.06531 8.95159 4.84777 8.76165 4.4563C8.63034 4.16499 8.65751 4.03148 8.9443 3.65003C9.73288 2.62998 11.5762 2.43438 11.9807 3.34758ZM48.9887 73.1682C49.2082 73.8254 48.4992 74.477 47.3111 74.7193C46.8609 74.8075 46.5146 74.7733 46.24 74.6148C45.6535 74.2762 45.5721 74.0137 45.8986 73.5059C46.2322 72.9858 47.069 72.5738 47.8762 72.559C48.5154 72.5469 48.8471 72.7217 48.9887 73.1682Z" fill="url(#paint0_linear_148_5680)"/>
<defs>
<linearGradient id="paint0_linear_148_5680" x1="5.5" y1="74" x2="49" y2="32.5" gradientUnits="userSpaceOnUse">
<stop offset="0.292361" stop-color="#FFF87B"/>
<stop offset="1" stop-color="#E99654"/>
</linearGradient>
</defs>
</svg>
