<svg width="61" height="62" viewBox="0 0 61 62" fill="none" xmlns="http://www.w3.org/2000/svg">
<path id="Vector" d="M34.9067 0.459283C34.3606 0.74497 34.2116 1.5042 34.134 4.31191C34.0484 7.52046 33.7653 9.21064 32.9613 11.2276C32.3513 12.7517 31.7166 13.7481 30.3845 15.2705L29.895 15.8324L29.6668 15.4414C29.5402 15.2254 29.1078 14.5927 28.7033 14.0333C24.8172 8.65252 19.6941 5.14267 16.1978 5.44855C15.011 5.55239 14.3573 6.08541 14.4277 6.89033C14.4615 7.27669 15.0317 8.62186 16.0544 10.7061C17.276 13.2163 17.9673 15.9459 17.8985 18.1148C17.8589 19.6323 17.6408 20.7112 16.7976 23.5102C16.1545 25.6428 15.8738 26.8677 15.7882 27.8593C15.7371 28.3829 15.7918 28.27 16.0973 27.2051C16.4283 26.0622 16.8431 25.1391 17.5033 24.0648C18.5052 22.4632 19.1608 20.3511 19.3607 18.2032C19.4698 16.8634 19.2803 14.3278 18.9795 13.2295C18.8671 12.8067 18.7937 12.3373 18.8135 12.195C18.9125 11.6023 19.993 11.6376 21.5887 12.2658C22.136 12.4883 22.6514 12.7136 22.7318 12.7714C22.8481 12.8694 23.21 13.0648 23.8193 13.3792C24.3374 13.6367 25.7075 14.6415 26.4993 15.3184C29.9371 18.2836 32.8096 23.0393 34.0601 27.8505C34.3703 29.0562 34.6922 33.105 34.7167 36.2174C34.745 39.3727 35.0396 43.1104 35.3038 43.7902C35.4128 44.051 35.5781 44.3394 35.6721 44.4285C35.8368 44.5871 35.8201 44.6426 35.5322 45.0463C35.3488 45.2895 34.8589 45.9704 34.4363 46.5589L33.6673 47.6211L33.0183 47.5913C31.5259 47.5272 29.3638 47.8137 27.2155 48.3802C23.5909 49.3137 22.9584 49.5962 16.7385 53.0061C13.2742 54.9098 12.8178 55.1119 12.4044 54.9426C11.7105 54.6464 10.5815 53.3177 9.19373 51.1248C8.1947 49.5576 7.92922 48.9861 7.65616 47.7122C7.20858 45.675 7.41801 42.6503 8.13926 40.6731C8.444 39.8462 9.25461 38.5208 10.1365 37.3946C10.4858 36.9531 10.7755 36.5709 10.7746 36.5602C10.7727 36.5387 10.5264 36.6792 10.2402 36.8556C8.39036 38.0016 7.00484 39.5287 6.44542 41.0159C5.6077 43.2629 5.64377 45.7687 6.58274 48.866C6.93194 50.025 6.9562 50.6717 6.68259 51.4851C6.31485 52.5771 5.65836 53.0779 3.25983 54.1097C1.57747 54.83 0.736398 55.3145 0.407607 55.7434C0.107136 56.1266 0.0741796 56.7351 0.341331 57.0794C0.523309 57.3122 0.60097 57.3379 0.992824 57.2603C1.23593 57.2066 1.92095 56.9088 2.50693 56.5871C4.90336 55.2852 7.08638 54.4995 8.19893 54.5319C9.15992 54.556 9.35202 54.6581 9.94823 55.4387C10.8367 56.6046 12.0813 57.6528 13.0179 58.0143C14.4796 58.5893 15.3586 58.4151 17.1921 57.2057C18.5563 56.2969 18.2589 56.961 16.6088 58.5436C15.3448 59.7357 15.0176 60.305 15.2834 60.7576C15.5618 61.2307 15.8672 61.1499 16.5049 60.4344C18.0446 58.6992 19.234 57.7624 20.0916 57.5901C20.4932 57.5009 20.6262 57.5433 21.4081 57.9832C22.2579 58.4603 23.3423 58.7872 23.8983 58.7386C24.9034 58.6507 25.5165 58.0239 27.4291 55.1313C28.7607 53.1115 30.4549 51.0491 31.3609 50.321C31.7135 50.0414 32.029 49.8299 32.0523 49.8495C32.0862 49.8682 31.759 50.4376 31.343 51.1012C28.8363 55.0839 27.0792 59.2606 27.589 60.0379C27.9246 60.5492 28.2915 60.0629 29.7892 57.1093C31.4258 53.8949 31.9648 53.0366 33.463 51.1969C34.8159 49.5429 35.6025 48.4359 35.8512 47.8301C35.9403 47.6169 36.3134 47.3247 37.1205 46.8215C39.0005 45.6513 39.6561 45.1397 40.3769 44.2656C41.1376 43.3555 41.7344 42.0488 41.8804 41.0087C41.9511 40.4618 41.9882 40.3936 42.2341 40.3721C42.6511 40.3356 43.2862 39.8367 43.4741 39.3985C43.6454 39.0158 43.6025 38.4031 43.3823 37.979C43.3166 37.8442 43.4229 37.7051 43.8467 37.3761C45.8649 35.8152 49.1519 33.7325 50.6572 33.0817L51.5388 32.6909L54.4801 32.4444C56.426 32.2742 57.6603 32.2203 58.1285 32.2766C58.52 32.3181 59.0622 32.3572 59.3313 32.3552C60.1835 32.3672 60.5444 31.9355 59.9565 31.6192C59.7304 31.4984 59.5682 31.491 59.1684 31.6017C58.8942 31.6689 58.0193 31.7671 57.2253 31.8041C54.3951 31.9652 52.0572 32.213 51.354 32.4259C50.285 32.7682 48.8523 33.51 47.2028 34.6059C46.6527 34.9677 46.0296 35.3574 45.8232 35.462L45.4417 35.6576L45.6902 35.4196C45.8286 35.2777 46.617 34.5599 47.4453 33.8061C50.0616 31.4468 51.4202 30.4736 52.6477 30.0958C54.0017 29.6854 56.4856 29.6303 57.1113 30.0081C57.5545 30.2721 58.396 30.285 58.5678 30.0321C58.683 29.8706 58.6676 29.8179 58.4913 29.6494C58.2219 29.4027 57.5946 29.2521 57.2376 29.359C57.0801 29.4052 56.4668 29.4156 55.8829 29.391C54.4965 29.3068 53.92 29.3681 52.7929 29.6613C51.0345 30.1288 49.0455 31.6546 44.6841 35.8645L42.9746 37.5064L42.6806 37.3483C42.2285 37.1067 41.4401 37.2081 41.029 37.5577C40.648 37.883 40.3326 38.7109 40.4501 39.0683C40.5214 39.2675 40.4666 39.3804 40.1665 39.6446C39.9561 39.8252 39.531 40.2626 39.2287 40.6243C38.9147 40.9762 38.6476 41.2483 38.6234 41.2179C38.5895 41.1993 38.8535 40.6463 39.2063 39.999C40.4651 37.6395 41.1406 36.0015 41.8898 33.4811C43.1948 29.0628 43.9497 24.6385 44.1251 20.3623C44.2138 18.0511 43.7717 13.2449 43.2801 11.3197C42.1144 6.73908 40.3183 3.32747 38.088 1.47868C36.9151 0.510668 35.6065 0.084438 34.9067 0.459283ZM37.8672 3.14179C38.4641 3.68435 38.8109 4.69219 38.528 5.03056C38.4305 5.14723 38.3226 5.14585 37.9868 5.0022C37.1911 4.65006 36.4278 3.19201 36.8585 2.81908C37.068 2.62772 37.4563 2.75597 37.8672 3.14179ZM39.9743 5.55288C40.3122 5.96671 40.4492 6.9172 40.1769 7.00592C39.9347 7.07036 39.4884 6.52543 39.3792 6.0159C39.2018 5.22033 39.495 5.00003 39.9743 5.55288ZM21.3404 8.93507C21.9519 9.15193 22.5344 9.6525 22.5626 9.97447C22.5729 10.0925 22.4889 10.2405 22.3662 10.3161C21.7761 10.7138 20.0761 9.87839 20.0132 9.15933C19.9757 8.73003 20.527 8.62773 21.3404 8.93507ZM37.0265 7.94122C38.6276 9.00153 40.9028 12.7173 41.7887 15.7002C42.3379 17.5447 42.5459 18.8134 42.6977 21.2875C42.9541 25.4502 42.5454 28.1679 41.1601 31.5442C40.5727 32.9582 40.2539 33.6242 38.4049 37.3655C37.9189 38.3381 37.3546 39.5229 37.1481 39.9952C36.9417 40.4675 36.7374 40.8422 36.7132 40.8119C36.6783 40.7825 36.676 40.2636 36.6973 39.6453C36.7316 38.9286 36.6602 37.4965 36.4968 35.6291C36.2626 33.0758 36.1799 32.499 35.7636 30.697C34.7604 26.3725 33.5006 22.6869 31.8291 19.2211C31.4863 18.5049 31.0719 17.7085 30.9085 17.4416C30.7451 17.1747 30.603 16.906 30.5974 16.8416C30.5927 16.7879 30.7799 16.5877 31.0127 16.4159C31.5679 15.9888 33.2064 14.0287 33.6957 13.218C34.568 11.7359 35.2347 10.1203 35.5441 8.73059C35.7432 7.80476 35.8867 7.59755 36.2666 7.6292C36.4395 7.6357 36.7753 7.77935 37.0265 7.94122ZM24.1292 9.90229C24.865 10.184 25.3162 11.0313 24.7495 11.0809C24.2042 11.1286 23.363 10.3803 23.4877 9.95841C23.5545 9.73629 23.6614 9.72693 24.1292 9.90229ZM29.4019 49.9733C29.4038 49.9947 29.2031 50.1637 28.9499 50.3481C28.2594 50.8302 27.2417 51.8818 25.3128 54.0944C23.1294 56.5997 22.8419 56.8844 22.4783 56.9162C22.1576 56.9443 21.2669 56.4923 20.3477 55.8374L19.7378 55.3933L21.187 54.3472C22.9604 53.0674 24.9915 51.7758 26.1681 51.1862C27.5413 50.5037 29.3878 49.8123 29.4019 49.9733Z" fill="url(#paint0_linear_148_5679)"/>
<defs>
<linearGradient id="paint0_linear_148_5679" x1="57.311" y1="-1.5893" x2="0.689089" y2="62.5898" gradientUnits="userSpaceOnUse">
<stop stop-color="#D16FA4"/>
<stop offset="1" stop-color="#F3A7C2"/>
</linearGradient>
</defs>
</svg>
