<svg width="69" height="72" viewBox="0 0 69 72" fill="none" xmlns="http://www.w3.org/2000/svg">
<path d="M7.03496 0.373735C6.04824 0.315712 4.51711 0.951248 3.44265 1.87968C1.30173 3.75525 0.198329 8.14026 0.526217 13.5216C0.722631 16.6512 1.19886 19.0113 2.41223 23.0472C4.19654 28.9396 8.03398 38.8665 9.68295 41.8243C10.9483 44.1161 13.9427 48.2058 15.6211 49.9368C16.0854 50.4031 16.088 50.4351 15.8116 50.8499C15.4199 51.4348 14.8687 52.7605 14.8034 53.307L14.7489 53.7495L13.242 53.0942L11.7405 52.4256L11.242 52.89C10.966 53.1501 10.0092 54.0951 9.11931 54.9897L7.50582 56.5984L5.67556 57.0511C4.66145 57.2917 3.2514 57.5891 2.54247 57.6897C1.29846 57.8839 0.845978 58.1191 1.35366 58.3242C1.6075 58.4268 4.50238 57.8777 6.60295 57.3329L7.90612 56.9924L9.84664 55.0358L11.7684 53.0872L13.2781 53.6971L14.7744 54.3017L15.0805 54.9673C15.2456 55.3282 15.6429 55.8448 15.9499 56.1237C16.2622 56.3892 16.4702 56.6436 16.4033 56.6939C16.355 56.7364 15.7611 56.8216 15.1084 56.8985C14.437 56.9833 13.8136 57.1031 13.7091 57.1693C13.6101 57.2221 12.698 58.4794 11.6866 59.9442L9.86218 62.6135L7.90948 64.0232C6.15769 65.2818 5.75032 65.6746 6.12441 65.8258C6.17784 65.8473 7.13399 65.2117 8.23222 64.4168L10.2278 62.978L12.0843 60.3062C13.1145 58.8334 13.9595 57.6265 13.9783 57.6186C14.0157 57.6028 14.7167 57.4834 15.5701 57.3328C17.0871 57.0786 17.1325 57.0815 18.2254 57.4921C18.8508 57.7138 19.5323 57.9117 19.7676 57.9448C20.1659 57.9974 20.3991 57.7664 20.2098 57.5042C20.0205 57.2419 19.9649 55.764 20.1472 55.5434C20.2411 55.4265 20.6103 55.3589 21.0194 55.3849C21.6826 55.436 21.7761 55.4738 23.1138 56.4324C25.517 58.1775 32.206 64.0851 32.6723 64.8928L32.9147 65.3314L32.3133 65.1658C31.8055 65.0381 26.565 63.1995 24.4193 62.3945C24.0933 62.2782 23.9355 62.2455 24.0664 62.3448C24.1838 62.4387 24.5836 63.0647 24.9565 63.7573C26.0246 65.7681 27.7665 67.8035 29.0326 68.5163C29.4946 68.7959 29.6256 68.8178 29.6955 68.6448C29.7493 68.5117 29.5706 68.3001 29.146 68.0047C28.2969 67.4139 26.7281 65.6808 25.9018 64.4179C25.2461 63.4253 25.0175 62.7601 25.4713 63.1756C25.7862 63.4732 32.0281 65.9486 34.6979 66.8415C41.844 69.2332 50.1804 71.4866 51.4296 71.3565C52.4942 71.2601 53.6166 70.444 55.0725 68.7252C56.0914 67.5111 56.7051 66.9539 57.3529 66.6582C57.6206 66.5341 58.9502 66.3591 60.2929 66.2668C64.7598 65.9812 67.6204 65.1706 68.056 64.0925C68.169 63.8129 67.9002 63.2089 67.4786 62.7908C66.1283 61.4401 60.6048 59.3788 56.2259 58.6005C55.17 58.4062 56.316 58.993 59.4343 60.2374C62.9587 61.6304 63.6559 62.0205 63.9592 62.7314C64.1588 63.1991 64.0217 63.4999 63.4218 63.9078C62.7174 64.3819 61.1982 64.4493 58.7412 64.1069C57.5915 63.9521 56.3723 63.8157 56.0433 63.8221C55.2891 63.8425 54.1114 64.2957 52.0471 65.3661C48.0284 67.4275 45.1467 68.0593 41.7699 67.6085C40.3797 67.4339 37.4901 66.7774 35.5498 66.1947C34.5956 65.9021 34.5422 65.8805 34.6498 65.6143C34.8057 65.2283 34.4351 64.7225 33.8072 64.4688C33.4999 64.3446 32.6375 63.6711 31.7434 62.8453C29.1598 60.4699 25.5589 57.3428 24.4696 56.5001C23.8849 56.0626 23.4391 55.6658 23.4553 55.6258C23.4714 55.5859 24.0249 55.6392 24.6878 55.7677C25.3428 55.8775 27.0779 56.1604 28.5483 56.3675C30.0134 56.5878 31.3555 56.8049 31.5453 56.8351C32.0693 56.9229 35.1547 57.287 36.5611 57.4217C38.1627 57.5733 42.4334 57.7349 43.677 57.6955C46.5896 57.6026 46.4505 57.6393 47.4819 56.8174C48.9875 55.6296 49.8456 54.5828 50.5872 52.978C51.3342 51.3598 51.5318 50.2939 51.3563 48.6127C51.1889 46.8729 50.0992 43.8004 48.5442 40.6484L47.8626 39.2582L48.341 40.6127C49.3697 43.4902 49.7655 45.9726 49.6421 48.5859C49.5722 49.9512 49.5264 50.103 48.7708 52.0118C48.034 53.8354 47.9105 54.0641 47.3584 54.5843C46.4955 55.4124 45.2804 55.804 43.9033 55.7122C42.9033 55.6487 42.5719 55.5458 40.461 54.6929C39.1838 54.1614 37.2039 53.3305 36.079 52.8451C33.4873 51.7206 32.2416 51.496 28.3797 51.515C27.4812 51.5081 26.2377 51.4701 25.6254 51.4086C25.0131 51.347 24.2295 51.3246 23.8764 51.3523C23.3629 51.3925 22.9272 51.2784 21.2197 50.6195C19.5523 49.9768 19.0365 49.8303 18.2984 49.8108L17.4239 49.7827L16.8908 47.7557C16.5937 46.6447 16.1479 45.0556 15.893 44.2249C15.638 43.3942 15.3831 42.5635 15.3354 42.3739C14.1937 38.5837 11.0881 31.5381 8.403 26.6444C7.76097 25.5024 7.26851 24.4519 7.26884 24.2972C7.32641 23.6546 6.04242 22.563 5.68589 22.9454C5.43121 23.2296 5.63026 23.9293 6.10794 24.401C6.58024 24.886 7.55022 26.4856 8.10915 27.7179C8.21292 27.9611 8.33282 28.1644 8.3729 28.1806C8.4397 28.2075 8.5249 28.3813 9.84559 31.0361C11.4991 34.3673 13.3562 38.7717 14.2489 41.4859C14.3498 41.7744 14.589 42.4904 14.7856 43.0807C14.9822 43.6711 15.3565 44.9372 15.6219 45.896C15.8872 46.8548 16.1314 47.7121 16.1526 47.8136C16.4021 48.6576 16.643 49.7923 16.5762 49.7653C16.4426 49.7113 13.5792 45.6436 12.849 44.4505C9.91481 39.7503 8.24794 36.4137 7.16681 33.0505C6.95701 32.3774 6.36784 30.2968 5.86648 28.4221C2.55601 15.9984 2.07344 9.19205 4.3983 7.59207C5.19916 7.03309 6.71994 7.46172 8.71739 8.82615C9.70814 9.48965 13.8513 12.9287 14.884 13.9498C15.0735 14.1347 15.2817 14.3118 15.3377 14.3654C15.4071 14.4244 15.9971 14.9259 16.6644 15.5052C17.3317 16.0845 17.9564 16.6156 18.0525 16.6854C18.1486 16.7552 18.8055 17.2064 19.5051 17.7058C21.0138 18.7799 21.8685 19.28 25.0901 20.9997C27.6224 22.348 28.8774 23.2421 29.3678 24.0286C29.7409 24.6438 30.1445 25.9527 30.329 27.1885L30.4899 28.2135L31.0062 26.9356C31.5978 25.4715 31.884 24.2246 31.8109 23.4054C31.6959 22.1512 30.7685 20.6772 29.3642 19.537C29.0599 19.2901 27.6232 18.3071 26.1758 17.3507C22.8377 15.1504 22.0476 14.4132 17.6539 9.40198C13.551 4.70954 13.0787 4.22454 11.0951 2.63346C9.49061 1.33492 7.86118 0.444337 7.03496 0.373735ZM10.4214 3.72383C10.8235 4.53657 9.41627 5.98087 7.98228 6.22212C6.93086 6.40117 6.40965 6.268 6.13791 5.78661C5.73031 5.06453 6.47337 4.03317 7.83325 3.43683C8.97366 2.92213 10.0886 3.04745 10.4214 3.72383ZM5.23609 3.59521C5.58521 4.15431 4.75922 5.19862 3.79056 5.44207C3.07609 5.63339 2.44522 5.50237 2.20264 5.14115C2.03207 4.87095 2.04039 4.73496 2.2713 4.3173C2.91025 3.19743 4.70841 2.7472 5.23609 3.59521ZM51.601 67.5858C51.9099 68.2061 51.2985 68.95 50.1556 69.3553C49.7221 69.5053 49.3744 69.5197 49.0805 69.4009C48.4525 69.1472 48.3354 68.8986 48.588 68.3503C48.8459 67.7888 49.6173 67.2643 50.4146 67.1374C51.0459 67.0364 51.3987 67.1634 51.601 67.5858Z" fill="url(#paint0_linear_167_2021)"/>
<defs>
<linearGradient id="paint0_linear_167_2021" x1="42.7797" y1="14.7092" x2="19.8816" y2="71.384" gradientUnits="userSpaceOnUse">
<stop stop-color="#3D3D3D"/>
<stop offset="1" stop-color="#343434"/>
</linearGradient>
</defs>
</svg>
