<svg aria-hidden="true" style="position: absolute; width: 0; height: 0; overflow: hidden;" version="1.1" xmlns="http://www.w3.org/2000/svg" xmlns:xlink="http://www.w3.org/1999/xlink">
<defs>
<symbol id="icon-burger" viewBox="0 0 59 32">
<path stroke-linejoin="miter" stroke-linecap="round" stroke-miterlimit="4" stroke-width="4.5714" d="M2.286 2.284l54.857 0.004"></path>
<path stroke-linejoin="miter" stroke-linecap="round" stroke-miterlimit="4" stroke-width="4.5714" d="M2.286 29.712l54.857 0.004"></path>
</symbol>
<symbol id="icon-close-btn" viewBox="0 0 32 32">
<path stroke-linejoin="miter" stroke-linecap="round" stroke-miterlimit="4" stroke-width="1.6" d="M8.8 8.8l13.6 13.6"></path>
<path stroke-linejoin="miter" stroke-linecap="round" stroke-miterlimit="4" stroke-width="1.6" d="M8.8 22.4l13.6-13.6"></path>
</symbol>
<symbol id="icon-arrow" viewBox="0 0 37 32">
<path d="M22.101 31.527l14.822-15.448-14.822-15.449c-0.134-0.182-0.304-0.333-0.499-0.441s-0.41-0.172-0.63-0.186c-0.22-0.015-0.441 0.020-0.648 0.102s-0.394 0.208-0.549 0.371c-0.155 0.163-0.275 0.359-0.35 0.574s-0.106 0.445-0.089 0.673c0.017 0.228 0.082 0.45 0.189 0.651s0.255 0.375 0.432 0.511l11.089 11.594h-29.505c-0.409 0-0.801 0.168-1.091 0.468s-0.452 0.707-0.452 1.131c0 0.424 0.163 0.831 0.452 1.131s0.682 0.468 1.091 0.468h29.505l-11.089 11.594c-0.288 0.301-0.449 0.709-0.448 1.133s0.165 0.831 0.456 1.13c0.29 0.299 0.684 0.466 1.093 0.465s0.801-0.172 1.090-0.473h-0.046z"></path>
</symbol>
<symbol id="icon-arrow45dg" viewBox="0 0 30 32">
<path d="M29.048 21.219l-5.443-20.442-20.759 4.069c-0.224 0.014-0.439 0.075-0.631 0.179s-0.357 0.248-0.484 0.422c-0.126 0.175-0.211 0.376-0.248 0.59s-0.027 0.436 0.032 0.651c0.058 0.215 0.163 0.417 0.306 0.594s0.322 0.323 0.525 0.43c0.203 0.107 0.424 0.171 0.649 0.189s0.449-0.012 0.656-0.087l15.562-3.025-15.244 24.396c-0.211 0.338-0.271 0.752-0.166 1.15s0.366 0.748 0.726 0.973c0.36 0.225 0.789 0.306 1.192 0.226s0.749-0.315 0.961-0.653l15.244-24.396 4.103 15.313c0.106 0.398 0.369 0.747 0.729 0.971s0.79 0.303 1.194 0.222 0.748-0.318 0.959-0.657c0.21-0.339 0.269-0.753 0.162-1.151l-0.024 0.038z"></path>
</symbol>
</defs>
</svg>
