<svg aria-hidden="true" style="position: absolute; width: 0; height: 0; overflow: hidden;" version="1.1" xmlns="http://www.w3.org/2000/svg" xmlns:xlink="http://www.w3.org/1999/xlink">
<defs>
<symbol id="icon-go-home" viewBox="0 0 36 32">
<path d="M14.451 0.473l-14.451 15.448 14.451 15.448c0.131 0.182 0.296 0.333 0.486 0.441s0.399 0.172 0.614 0.186c0.215 0.015 0.43-0.020 0.632-0.102s0.384-0.208 0.535-0.372c0.151-0.163 0.268-0.359 0.342-0.574s0.103-0.445 0.087-0.673c-0.017-0.228-0.080-0.45-0.184-0.651s-0.248-0.374-0.421-0.511l-10.812-11.594h28.767c0.399 0 0.781-0.168 1.063-0.468s0.44-0.707 0.44-1.131c0-0.424-0.158-0.831-0.44-1.131s-0.665-0.468-1.063-0.468h-28.767l10.812-11.594c0.281-0.301 0.438-0.709 0.437-1.133s-0.161-0.831-0.444-1.13c-0.283-0.299-0.666-0.466-1.065-0.465s-0.781 0.172-1.062 0.473h0.045z"></path>
</symbol>
</defs>
</svg>
